<svg width="37" height="36" viewBox="0 0 37 36" fill="none" xmlns="http://www.w3.org/2000/svg">
<g filter="url(#filter0_dd_6_301)">
<path d="M9.60763 28H26.7257C29.8175 28 32.3333 25.5138 32.3333 22.4583V5.54167C32.3333 2.48617 29.8175 0 26.7257 0H9.60763C6.51576 0 4 2.48617 4 5.54167V22.4583C4 25.5138 6.51576 28 9.60763 28ZM5.77083 5.54167C5.77083 3.451 7.49208 1.75 9.60763 1.75H26.7257C28.8412 1.75 30.5625 3.451 30.5625 5.54167V22.4583C30.5625 24.549 28.8412 26.25 26.7257 26.25H9.60763C7.49208 26.25 5.77083 24.549 5.77083 22.4583V5.54167Z" fill="white"/>
<path d="M18.1674 21.1517C22.1576 21.1517 25.4042 17.9434 25.4042 14.0001C25.4042 10.0567 22.1576 6.84839 18.1674 6.84839C14.1771 6.84839 10.9306 10.0567 10.9306 14.0001C10.9306 17.9434 14.1771 21.1517 18.1674 21.1517ZM18.1674 8.59839C21.1813 8.59839 23.6333 11.0216 23.6333 14.0001C23.6333 16.9786 21.1813 19.4017 18.1674 19.4017C15.1534 19.4017 12.7014 16.9786 12.7014 14.0001C12.7014 11.0216 15.1534 8.59839 18.1674 8.59839Z" fill="white"/>
<path d="M25.6732 8.58891C26.8372 8.58891 27.7143 7.72558 27.7143 6.58108C27.7143 5.38758 26.7912 4.57324 25.6744 4.57324C24.5103 4.57324 23.6332 5.43658 23.6332 6.58108C23.6332 7.77224 24.5516 8.58891 25.6732 8.58891ZM25.8821 6.38858C26.2552 6.71408 25.404 7.10958 25.404 6.58224C25.404 6.26724 25.8373 6.34891 25.8821 6.38858Z" fill="white"/>
</g>
<defs>
<filter id="filter0_dd_6_301" x="0" y="0" width="36.3333" height="36" filterUnits="userSpaceOnUse" color-interpolation-filters="sRGB">
<feFlood flood-opacity="0" result="BackgroundImageFix"/>
<feColorMatrix in="SourceAlpha" type="matrix" values="0 0 0 0 0 0 0 0 0 0 0 0 0 0 0 0 0 0 127 0" result="hardAlpha"/>
<feOffset dy="4"/>
<feGaussianBlur stdDeviation="2"/>
<feComposite in2="hardAlpha" operator="out"/>
<feColorMatrix type="matrix" values="0 0 0 0 0 0 0 0 0 0 0 0 0 0 0 0 0 0 0.25 0"/>
<feBlend mode="normal" in2="BackgroundImageFix" result="effect1_dropShadow_6_301"/>
<feColorMatrix in="SourceAlpha" type="matrix" values="0 0 0 0 0 0 0 0 0 0 0 0 0 0 0 0 0 0 127 0" result="hardAlpha"/>
<feOffset dy="4"/>
<feGaussianBlur stdDeviation="2"/>
<feComposite in2="hardAlpha" operator="out"/>
<feColorMatrix type="matrix" values="0 0 0 0 0 0 0 0 0 0 0 0 0 0 0 0 0 0 0.25 0"/>
<feBlend mode="normal" in2="effect1_dropShadow_6_301" result="effect2_dropShadow_6_301"/>
<feBlend mode="normal" in="SourceGraphic" in2="effect2_dropShadow_6_301" result="shape"/>
</filter>
</defs>
</svg>
